<svg width="512" height="477" viewBox="0 0 512 477" fill="none" xmlns="http://www.w3.org/2000/svg">
<path d="M400 13H112C95.0318 13.0185 78.7639 19.7673 66.7656 31.7656C54.7673 43.7639 48.0185 60.0318 48 77V365C48.0185 381.968 54.7673 398.236 66.7656 410.234C78.7639 422.233 95.0318 428.981 112 429H400C416.968 428.981 433.236 422.233 445.234 410.234C457.233 398.236 463.981 381.968 464 365V77C463.981 60.0318 457.233 43.7639 445.234 31.7656C433.236 19.7673 416.968 13.0185 400 13V13ZM364.25 151.29L229.85 311.29C228.376 313.046 226.541 314.465 224.471 315.45C222.4 316.435 220.143 316.964 217.85 317H217.58C215.337 316.999 213.12 316.527 211.072 315.614C209.023 314.701 207.19 313.367 205.69 311.7L148.09 247.7C146.627 246.148 145.489 244.32 144.743 242.323C143.997 240.325 143.658 238.198 143.745 236.068C143.833 233.937 144.345 231.846 145.252 229.916C146.16 227.986 147.444 226.257 149.029 224.831C150.614 223.404 152.468 222.309 154.482 221.61C156.497 220.91 158.631 220.62 160.759 220.757C162.887 220.894 164.966 221.455 166.874 222.407C168.782 223.359 170.481 224.682 171.87 226.3L217.16 276.62L339.75 130.71C342.5 127.531 346.39 125.561 350.58 125.227C354.771 124.894 358.924 126.222 362.142 128.926C365.361 131.629 367.386 135.491 367.781 139.676C368.175 143.861 366.907 148.033 364.25 151.29V151.29Z" fill="#A4FFA2"/>
</svg>
