<svg width="2000" height="2000" viewBox="0 0 2000 2000" fill="none" xmlns="http://www.w3.org/2000/svg">
<path d="M1106.67 1417.87H680V1754.07H1106.67V1417.87Z" fill="#3A4052"/>
<path d="M578.67 966.67H190.67C157.533 966.67 130.67 993.533 130.67 1026.67V1665.34C130.67 1698.48 157.533 1725.34 190.67 1725.34H578.67C611.807 1725.34 638.67 1698.48 638.67 1665.34V1026.67C638.67 993.533 611.807 966.67 578.67 966.67Z" fill="#3A4052"/>
<path d="M741.67 969C789.665 1036.01 821.39 1113.27 834.33 1194.67L678.33 1180.33L741.67 969Z" fill="#FF9E9F"/>
<path d="M1206 1422.67C1283.54 1501.88 1347.51 1593.33 1395.33 1693.33L1294.67 1694.67L1118 1504L1206 1422.67Z" fill="#FF9E9F"/>
<path d="M698.67 1157.33C763.779 1161.56 828.078 1174.11 890 1194.67C1062.53 1252.09 1173.88 1358.35 1230 1421.33L1139.33 1516.67L655.33 1210L698.67 1157.33Z" fill="#64B6CE"/>
<path d="M1080.67 1448.67C1175.76 1508.72 1255.45 1590.24 1313.33 1686.67L1104 1684.67C1095.36 1673.8 1085.63 1662.6 1074.67 1651.33C1047.84 1623.81 1017.59 1599.84 984.67 1580L1080.67 1448.67Z" fill="#FF9E9F"/>
<path d="M1080.67 1448.67C1175.76 1508.72 1255.45 1590.24 1313.33 1686.67" stroke="black" stroke-width="5" stroke-linecap="round" stroke-linejoin="round"/>
<path d="M623 1202C691.054 1202.79 758.68 1212.89 824 1232C976.48 1276.72 1079.94 1360.48 1135 1413L987 1620C927.928 1569.55 861.058 1529.02 789 1500C664.86 1450.09 554.1 1446.2 489 1449L436 1300L623 1202Z" fill="#64B6CE"/>
<path d="M623 1202C691.054 1202.79 758.68 1212.89 824 1232C976.48 1276.72 1079.94 1360.48 1135 1413L987 1620" stroke="black" stroke-width="5" stroke-linecap="round" stroke-linejoin="round"/>
<path d="M310 900.67C302.118 901.201 294.273 899.211 287.597 894.987C280.922 890.763 275.764 884.526 272.869 877.176C269.973 869.827 269.492 861.747 271.493 854.105C273.494 846.464 277.874 839.657 284 834.67C279.7 831.34 248.77 806.52 247.33 763.33C246 723.23 271.1 697.52 275.33 693.33C269.02 677.851 267.067 660.941 269.68 644.432C272.294 627.922 279.375 612.442 290.157 599.669C300.939 586.896 315.01 577.317 330.847 571.969C346.684 566.621 363.682 565.708 380 569.33C381.39 565.49 398 521.81 445.33 509.33C494.49 496.38 531.47 529.02 534 531.33C560.61 514.04 594.53 512.98 621.33 528.67C650.88 545.96 666.73 580.67 660.67 615.33C662.67 615.92 703.88 628.59 714.67 670C723.93 705.56 703.23 733.35 700.67 736.67C704.46 740 736.16 768.78 732.67 811.33C729.5 849.86 698.83 883.51 656.67 892.67L310 900.67Z" fill="black"/>
<path d="M207.11 1195.56L233.78 1186.67L266.22 1241.78C325.17 1247.98 424.37 1250.51 538 1213.33C601.649 1192.46 661.691 1161.88 716 1122.67C717.56 1073.34 719.117 1024 720.67 974.67L748.67 955.33C739.421 940.537 728.455 926.888 716 914.67C616.41 817.2 454.51 848.29 430 853C371.12 864.31 288.69 880.14 234.67 955.33C161.83 1056.71 202 1180.57 207.11 1195.56Z" fill="#099672"/>
<path d="M638.77 923.6C620.663 956.093 602.546 988.583 584.42 1021.07C583.286 1023.11 582.884 1025.48 583.28 1027.78C587.22 1050.54 591.156 1073.3 595.09 1096.07C595.338 1097.52 595.897 1098.9 596.728 1100.11C597.559 1101.32 598.643 1102.34 599.904 1103.09C601.166 1103.85 602.575 1104.32 604.037 1104.48C605.498 1104.64 606.976 1104.48 608.37 1104.01L700.66 1073.12C703.224 1072.26 705.341 1070.41 706.55 1067.99L757 966.5C757.648 965.193 758.009 963.763 758.057 962.305C758.106 960.847 757.841 959.396 757.281 958.049C756.721 956.702 755.878 955.491 754.81 954.498C753.742 953.504 752.474 952.751 751.09 952.29L650.91 918.89C648.654 918.139 646.208 918.199 643.991 919.058C641.775 919.918 639.929 921.524 638.77 923.6V923.6Z" fill="#64B6CE"/>
<path d="M646.33 926.27L592 1023.74C590.862 1025.78 590.459 1028.14 590.86 1030.44C594.787 1053.21 598.72 1075.97 602.66 1098.74C602.911 1100.19 603.472 1101.56 604.305 1102.78C605.137 1103.99 606.222 1105 607.484 1105.76C608.746 1106.51 610.156 1106.98 611.617 1107.14C613.079 1107.3 614.557 1107.14 615.95 1106.67L708.23 1075.79C710.799 1074.93 712.92 1073.08 714.13 1070.66L764.58 969.17C765.221 967.864 765.575 966.436 765.619 964.982C765.663 963.527 765.394 962.081 764.833 960.738C764.271 959.396 763.429 958.19 762.363 957.2C761.296 956.21 760.03 955.46 758.65 955L658.46 921.6C656.211 920.846 653.769 920.9 651.555 921.753C649.341 922.605 647.494 924.202 646.33 926.27Z" fill="#343843"/>
<path d="M656.38 985.53L639.38 979.99C638.87 979.824 638.403 979.546 638.014 979.176C637.625 978.806 637.323 978.354 637.132 977.853C636.94 977.351 636.863 976.813 636.906 976.278C636.949 975.743 637.111 975.224 637.38 974.76L655.2 943.9C655.612 943.185 656.257 942.634 657.027 942.339C657.798 942.044 658.646 942.023 659.43 942.28L676.43 947.82C676.941 947.986 677.407 948.264 677.797 948.634C678.186 949.004 678.487 949.456 678.679 949.958C678.871 950.459 678.948 950.997 678.905 951.532C678.862 952.067 678.7 952.586 678.43 953.05L660.62 983.91C660.205 984.624 659.558 985.175 658.787 985.47C658.015 985.765 657.166 985.786 656.38 985.53V985.53Z" fill="#64B6CE"/>
<path d="M657.64 977.93L645.7 974.22C645.337 974.092 645.007 973.883 644.735 973.61C644.463 973.337 644.256 973.006 644.129 972.642C644.003 972.278 643.959 971.89 644.003 971.508C644.046 971.125 644.175 970.756 644.38 970.43L657.63 947.49C657.916 946.973 658.366 946.566 658.91 946.334C659.453 946.102 660.059 946.058 660.63 946.21L672.57 949.93C672.932 950.058 673.261 950.266 673.532 950.539C673.803 950.812 674.008 951.142 674.134 951.505C674.26 951.868 674.303 952.255 674.259 952.636C674.215 953.018 674.085 953.385 673.88 953.71L660.63 976.66C660.343 977.173 659.894 977.577 659.352 977.807C658.811 978.037 658.209 978.08 657.64 977.93V977.93Z" fill="#163342"/>
<path d="M610.67 1065C606.6 1063.81 603.87 1060.38 600 1052C591.84 1034.33 594 1028 587.67 1016.33C585.84 1012.98 577.78 998.14 569.67 999C558.67 1000.16 554.07 1029.34 553.67 1032C551.9 1043.7 550.67 1068.07 568 1099.33C557.59 1117.37 543.778 1133.22 527.33 1146C511.17 1158.5 481.86 1181.17 443.33 1176.67C413.05 1173.13 392.52 1154.6 383.81 1145.54L219.52 1191.65C225.2 1213.53 237.98 1249.45 268.67 1281.33C335.61 1350.89 432.34 1343.73 454.67 1342C602.3 1330.58 681.87 1189.11 689.33 1175.33C701.707 1170.12 713.272 1163.17 723.67 1154.67C732.55 1147.39 756.39 1127.35 765 1094.33C768.44 1081.13 772.39 1054.58 761.78 1048.89C757.65 1046.68 752.3 1048.14 747.67 1050.33C748.43 1048.06 757.6 1019.7 743.11 1005.33C741.54 1003.78 737.56 999.94 731.67 999.33C722.67 998.41 713.1 1005.33 707.33 1017C706.7 1000.58 699.49 988.24 690.33 986.33C687.409 985.784 684.39 986.132 681.67 987.33C671.77 991.95 670.67 1007.42 669 1015C666.3 1027.4 656.63 1044.11 624.67 1061.33C622.47 1062.92 616.58 1066.74 610.67 1065Z" fill="#FF9E9F"/>
<path d="M695 985.83C699.457 990.05 702.977 995.161 705.33 1000.83C714.12 1022.31 701.69 1043.31 699.83 1046.33" stroke="black" stroke-width="5" stroke-linecap="round" stroke-linejoin="round"/>
<path d="M745.37 1005.76C749.824 1013.61 752.277 1022.44 752.51 1031.47C753.09 1063.67 723.06 1083.47 720.41 1085.17" stroke="black" stroke-width="5" stroke-linecap="round" stroke-linejoin="round"/>
<path d="M750.32 1049.2C754.07 1047.44 758.69 1046.1 762.32 1048C772.7 1053.42 769.4 1082.08 762.94 1101.15C752.86 1130.92 731.27 1148.6 721.57 1156.34C711.617 1164.29 700.668 1170.9 689 1176" stroke="black" stroke-width="5" stroke-linecap="round" stroke-linejoin="round"/>
<path d="M201.67 1196.67L391.67 1143.33C388.946 1103.39 383.564 1063.67 375.56 1024.44C371.17 1002.99 366.21 982.67 360.89 963.56" stroke="black" stroke-width="5" stroke-linecap="round" stroke-linejoin="round"/>
<path d="M130.67 1326H697.78C708.094 1326 717.986 1330.1 725.279 1337.39C732.573 1344.68 736.67 1354.58 736.67 1364.89V1729.22C736.67 1739.51 732.584 1749.37 725.312 1756.64C718.039 1763.91 708.175 1768 697.89 1768H130.67V1326Z" fill="#3A4052"/>
<path d="M610.56 1326H698C708.256 1326 718.092 1330.07 725.344 1337.33C732.596 1344.58 736.67 1354.41 736.67 1364.67V1729.34C736.668 1739.59 732.592 1749.43 725.34 1756.68C718.089 1763.93 708.254 1768 698 1768H606.44C595.89 1768 585.772 1763.81 578.311 1756.35C570.851 1748.89 566.66 1738.77 566.66 1728.22V1369.89C566.66 1364.13 567.796 1358.42 570.002 1353.09C572.208 1347.77 575.442 1342.93 579.519 1338.85C583.595 1334.78 588.435 1331.54 593.761 1329.34C599.087 1327.13 604.796 1326 610.56 1326Z" fill="#3A4052"/>
<path d="M568.33 1326H698C708.255 1326 718.089 1330.08 725.341 1337.33C732.592 1344.58 736.667 1354.41 736.67 1364.67V1729.33C736.67 1750.63 723.79 1765 698 1765" stroke="black" stroke-width="5" stroke-linecap="round" stroke-linejoin="round"/>
<path d="M439.31 783.87L386 871.33C399.614 888.485 417.46 901.801 437.782 909.966C458.103 918.132 480.201 920.866 501.9 917.9L540 845.33C552.958 840.856 565.113 834.33 576 826C618.65 793.23 643.71 729.9 624.33 683.33C621.653 676.922 618.182 670.875 614 665.33C595.019 681.334 572.154 692.052 547.711 696.404C523.267 700.756 498.109 698.589 474.77 690.12C470.96 684.42 464.15 676.38 453.91 673.92C431.26 668.47 404.18 693.25 398 720C394.13 736.76 396.88 761.12 414.44 774.67C421.673 780.064 430.308 783.258 439.31 783.87Z" fill="#FF9E9F"/>
<path d="M545.13 781L575.74 781.75C572.697 766.587 574.257 750.86 580.22 736.59C580.87 735.12 584.43 727.59 592.53 725.01C601.28 722.28 611.74 726.53 617.53 735.84" stroke="black" stroke-width="5" stroke-linecap="round" stroke-linejoin="round"/>
<path d="M560.06 720.92C557.68 716.45 552.64 708.27 544.06 702.63C539.938 699.861 535.261 698.025 530.355 697.252C525.45 696.478 520.435 696.784 515.66 698.15" stroke="black" stroke-width="5" stroke-linecap="round" stroke-linejoin="round"/>
<path d="M501.46 791.09C504.947 799.134 510.979 805.809 518.63 810.09C534.8 818.93 551.09 812.52 553.34 811.59" stroke="black" stroke-width="5" stroke-linecap="round" stroke-linejoin="round"/>
<path d="M472.67 820.22C477.67 826.22 488.55 837.35 506 842.44C526.36 848.39 543.46 842.5 552.67 839.33C565.541 834.866 577.291 827.664 587.11 818.22" stroke="black" stroke-width="5" stroke-linecap="round" stroke-linejoin="round"/>
<path d="M438.22 701.11C442.067 712.957 445.92 724.81 449.78 736.67L418.22 742.22" stroke="black" stroke-width="5" stroke-linecap="round" stroke-linejoin="round"/>
<path d="M1836.71 1679.38C1836.7 1677.95 1836.13 1676.58 1835.11 1675.57C1834.1 1674.57 1832.73 1674 1831.3 1674H1006C1004.57 1674 1003.2 1674.57 1002.19 1675.57C1001.18 1676.58 1000.61 1677.95 1000.6 1679.38C1000.56 1685.77 1000.52 1692.16 1000.49 1698.56C1000.49 1699.27 1000.62 1699.98 1000.89 1700.64C1001.16 1701.3 1001.56 1701.9 1002.06 1702.4C1002.57 1702.91 1003.16 1703.31 1003.82 1703.59C1004.48 1703.86 1005.19 1704 1005.9 1704H1045.29C1048.68 1746.81 1063.69 1787.88 1088.72 1822.77C1113.74 1857.67 1147.83 1885.06 1187.29 1902H1650C1689.46 1885.07 1723.55 1857.67 1748.58 1822.78C1773.6 1787.88 1788.62 1746.81 1792 1704H1831.39C1832.1 1704 1832.81 1703.86 1833.47 1703.59C1834.13 1703.31 1834.72 1702.91 1835.23 1702.4C1835.73 1701.9 1836.13 1701.3 1836.4 1700.64C1836.67 1699.98 1836.8 1699.27 1836.8 1698.56C1836.78 1692.19 1836.75 1685.79 1836.71 1679.38Z" fill="#808191" stroke="black" stroke-width="5" stroke-linecap="round" stroke-linejoin="round"/>
<path d="M1462.72 1744.51C1457.5 1744.51 1452.38 1746.01 1447.98 1748.82C1443.58 1751.64 1440.08 1755.66 1437.89 1760.4C1435.7 1755.66 1432.2 1751.64 1427.8 1748.82C1423.4 1746.01 1418.28 1744.51 1413.06 1744.51C1397.95 1744.51 1377.26 1759.51 1401.06 1796.43C1417.34 1821.67 1434.29 1832.11 1439.33 1837C1446.23 1829.54 1455.96 1820.13 1471.57 1798.33C1498.18 1761.17 1477.83 1744.51 1462.72 1744.51Z" stroke="black" stroke-width="5" stroke-linecap="round" stroke-linejoin="round"/>
<path d="M1780.27 117.33H1164.8C1129.08 117.33 1100.13 146.284 1100.13 182V1051.33C1100.13 1087.05 1129.08 1116 1164.8 1116H1780.27C1815.99 1116 1844.94 1087.05 1844.94 1051.33V182C1844.94 146.284 1815.99 117.33 1780.27 117.33Z" fill="#808191" stroke="black" stroke-width="5" stroke-linecap="round" stroke-linejoin="round"/>
<path d="M1639.51 800.56H1305.55C1291.47 800.56 1280.05 811.977 1280.05 826.06V862.09C1280.05 876.173 1291.47 887.59 1305.55 887.59H1639.51C1653.59 887.59 1665.01 876.173 1665.01 862.09V826.06C1665.01 811.977 1653.59 800.56 1639.51 800.56Z" fill="#262A34" stroke="black" stroke-width="5" stroke-linecap="round" stroke-linejoin="round"/>
<path d="M1478.7 914.23H1299.23C1288.64 914.23 1280.05 922.817 1280.05 933.41V982.08C1280.05 992.673 1288.64 1001.26 1299.23 1001.26H1478.7C1489.29 1001.26 1497.88 992.673 1497.88 982.08V933.41C1497.88 922.817 1489.29 914.23 1478.7 914.23Z" fill="#262A34" stroke="black" stroke-width="5" stroke-linecap="round" stroke-linejoin="round"/>
<path d="M1207.5 495.5L1236.44 490.67C1247.5 473.426 1261.18 458.017 1277 445C1394.31 349 1586.17 428.09 1607 437C1623.27 443.894 1637.91 454.112 1650 467C1653.31 470.56 1664.25 482.72 1675.78 508.67C1687.49 535.3 1694.52 563.75 1696.56 592.77C1688.09 604.582 1678.77 615.761 1668.67 626.22C1652.33 643.28 1633.97 658.281 1614 670.89C1589.46 685.881 1562.68 696.834 1534.67 703.33C1450.17 723.01 1381.15 695.56 1364 688.22C1341.32 678.492 1320.07 665.744 1300.81 650.32C1286.5 640.5 1259 604.5 1249.5 591C1224 575.5 1236 556.5 1211.5 516L1207.5 495.5Z" fill="white"/>
<path d="M1704.89 579.63C1680.45 620.841 1645.48 654.806 1603.58 678.042C1561.67 701.277 1514.34 712.945 1466.44 711.85C1378.89 709.8 1319.44 665.45 1300.81 650.32" stroke="black" stroke-width="5" stroke-linecap="round" stroke-linejoin="round"/>
<path d="M1604.67 514.22L1567.41 694.66" stroke="black" stroke-width="5" stroke-linecap="round" stroke-linejoin="round"/>
<path d="M1322.67 486.67C1315.38 541.217 1308.1 595.767 1300.81 650.32" stroke="black" stroke-width="5" stroke-linecap="round" stroke-linejoin="round"/>
<path d="M1483.67 219.5C1467.34 233.835 1453.43 250.72 1442.5 269.5C1439.16 263.098 1437.83 255.84 1438.67 248.67C1439.22 244.342 1440.57 240.155 1442.67 236.33L1483.67 219.5Z" fill="#292929"/>
<path d="M1445 539.67C1438.67 505.33 1432.34 470.997 1426 436.67L1504.33 456.67L1445 539.67Z" fill="#64B6CE"/>
<path d="M1443 369.67C1437.33 391.997 1431.66 414.33 1426 436.67C1449.37 450.734 1476.17 458.08 1503.45 457.9L1525.33 423C1527.67 403.887 1530 384.777 1532.33 365.67C1539.47 366.818 1546.79 366.245 1553.67 364C1555.32 363.45 1575.45 356.37 1582.33 335.33C1583.72 331.08 1589.67 312.9 1578 298.67C1567.23 285.53 1550 286.22 1548 286.33L1478 221C1465.37 229.868 1454.8 241.351 1447 254.67C1438.49 269.37 1436.43 286.02 1432.33 319.33C1430.38 335.23 1429.75 348.49 1437 361.33C1438.69 364.319 1440.7 367.115 1443 369.67V369.67Z" fill="#FF9E9F"/>
<path d="M1445.33 281C1452.08 278.724 1459.42 278.915 1466.04 281.539C1472.66 284.163 1478.14 289.049 1481.5 295.33C1475.32 305.503 1467.36 314.479 1458 321.83L1468.5 332.5" stroke="black" stroke-width="5" stroke-linecap="round" stroke-linejoin="round"/>
<path d="M1497.78 296.89C1499.11 296.41 1508.78 293.06 1518.22 298.67C1523.2 301.706 1526.91 306.441 1528.67 312" stroke="black" stroke-width="5" stroke-linecap="round" stroke-linejoin="round"/>
<path d="M1452.67 345.11C1454.56 348.621 1457.21 351.659 1460.44 354C1469.88 360.76 1480.71 358.69 1482.89 358.22" stroke="black" stroke-width="5" stroke-linecap="round" stroke-linejoin="round"/>
<path d="M1563.56 318.22L1546.22 327.11L1560 340" stroke="black" stroke-width="5" stroke-linecap="round" stroke-linejoin="round"/>
<path d="M1474.08 223.92C1477.78 234.84 1487.82 259.36 1512.67 278.67C1524.29 287.667 1537.53 294.342 1551.67 298.33C1560.71 295.971 1570.27 296.531 1578.98 299.93C1582.97 292.096 1585.14 283.461 1585.33 274.67C1585.79 241.98 1556.56 221.1 1551 217.33C1548.07 215.33 1514.24 193.21 1477 208.33C1458 216.03 1447.22 229.72 1442.67 236.33L1467.33 226.33L1474.08 223.92Z" fill="#292929"/>
<path d="M1528.44 418C1515.16 438.853 1501.27 459.933 1486.76 481.24C1454.32 528.85 1421.59 573.24 1389.11 614.67L1364.41 689" stroke="black" stroke-width="5" stroke-linecap="round" stroke-linejoin="round"/>
<path d="M1389.11 614.67L1523.67 524.33L1515.33 478.67L1547.67 497L1552.23 417.67" stroke="black" stroke-width="5" stroke-linecap="round" stroke-linejoin="round"/>
<path d="M1406.36 398.47L1380 472.33L1418.33 470.33L1384 498.67L1422.55 571.08" stroke="black" stroke-width="5" stroke-linecap="round" stroke-linejoin="round"/>
<path d="M1472.54 711.91C1621.73 711.91 1742.67 590.969 1742.67 441.78C1742.67 292.591 1621.73 171.65 1472.54 171.65C1323.35 171.65 1202.41 292.591 1202.41 441.78C1202.41 590.969 1323.35 711.91 1472.54 711.91Z" stroke="black" stroke-width="5" stroke-linecap="round" stroke-linejoin="round"/>
</svg>
