<?xml version="1.0" encoding="UTF-8"?>
<!DOCTYPE svg PUBLIC "-//W3C//DTD SVG 1.1//EN" "http://www.w3.org/Graphics/SVG/1.1/DTD/svg11.dtd">
<svg xmlns="http://www.w3.org/2000/svg" version="1.1" width="500px" height="500px" style="shape-rendering:geometricPrecision; text-rendering:geometricPrecision; image-rendering:optimizeQuality; fill-rule:evenodd; clip-rule:evenodd" xmlns:xlink="http://www.w3.org/1999/xlink">
<g><path style="opacity:0.475" fill="#ffb9b7" d="M 233.5,73.5 C 231.097,73.448 228.764,73.7814 226.5,74.5C 227.312,73.0069 228.645,72.3402 230.5,72.5C 231.726,72.5195 232.726,72.8529 233.5,73.5 Z"/></g>
<g><path style="opacity:1" fill="#ff4941" d="M 233.5,73.5 C 233.427,75.0269 234.094,76.0269 235.5,76.5C 240.892,84.938 246.059,93.6046 251,102.5C 255.603,109.679 253.77,112.846 245.5,112C 244.54,110.581 243.707,109.081 243,107.5C 242.107,106.919 241.107,106.585 240,106.5C 235.175,107.291 230.342,107.957 225.5,108.5C 225.448,111.346 224.448,113.68 222.5,115.5C 220.435,115.483 218.435,115.15 216.5,114.5C 215.383,111.313 215.716,108.313 217.5,105.5C 218.924,103.485 219.59,101.152 219.5,98.5C 220.924,96.4855 221.59,94.1522 221.5,91.5C 222.409,85.5134 224.076,79.8468 226.5,74.5C 228.764,73.7814 231.097,73.448 233.5,73.5 Z M 232.5,87.5 C 234.167,90.8333 235.833,94.1667 237.5,97.5C 235.167,98.1667 232.833,98.8333 230.5,99.5C 229.414,99.38 228.747,98.7133 228.5,97.5C 229.328,94.5212 229.995,91.5212 230.5,88.5C 231.167,88.1667 231.833,87.8333 232.5,87.5 Z"/></g>
<g><path style="opacity:0.467" fill="#ffb0ac" d="M 233.5,73.5 C 234.906,73.9731 235.573,74.9731 235.5,76.5C 234.094,76.0269 233.427,75.0269 233.5,73.5 Z"/></g>
<g><path style="opacity:1" fill="#ff5047" d="M 310.5,117.5 C 310.843,115.517 310.176,114.183 308.5,113.5C 306.742,113.123 305.075,112.456 303.5,111.5C 301.707,114.251 300.041,117.084 298.5,120C 294.518,121.421 291.852,120.254 290.5,116.5C 295.055,105.056 299.888,93.7225 305,82.5C 306.062,81.9032 307.228,81.5698 308.5,81.5C 314.153,82.8248 319.486,84.9914 324.5,88C 330.599,93.7434 332.099,100.577 329,108.5C 326.703,111.98 323.536,113.98 319.5,114.5C 319.685,118.244 320.352,121.911 321.5,125.5C 320.091,130.581 317.258,131.581 313,128.5C 311.594,124.969 310.76,121.302 310.5,117.5 Z M 311.5,91.5 C 315.06,92.8643 318.227,94.8643 321,97.5C 322.232,102.711 320.232,105.711 315,106.5C 311.846,105.84 309.013,104.506 306.5,102.5C 308.367,98.888 310.034,95.2213 311.5,91.5 Z"/></g>
<g><path style="opacity:0.008" fill="#ffe1e0" d="M 232.5,87.5 C 231.833,87.8333 231.167,88.1667 230.5,88.5C 230.281,87.325 230.614,86.325 231.5,85.5C 232.298,85.9569 232.631,86.6236 232.5,87.5 Z"/></g>
<g><path style="opacity:1" fill="#ff5147" d="M 177.5,86.5 C 193.789,84.7944 203.122,91.9611 205.5,108C 201.177,127.996 189.51,133.996 170.5,126C 158.564,114.018 158.564,102.018 170.5,90C 172.925,88.7874 175.259,87.6207 177.5,86.5 Z M 189.5,96.5 C 190.5,98.1667 191.833,99.5 193.5,100.5C 195.953,104.622 196.619,108.955 195.5,113.5C 194.094,113.973 193.427,114.973 193.5,116.5C 189.494,119.926 184.827,121.259 179.5,120.5C 178.71,119.599 177.71,118.932 176.5,118.5C 170.282,113.528 169.115,107.528 173,100.5C 177.584,95.6502 183.084,94.3169 189.5,96.5 Z"/></g>
<g><path style="opacity:1" fill="#ff554b" d="M 261.5,89.5 C 268.896,89.7231 276.23,90.5564 283.5,92C 287.628,96.284 286.794,99.4507 281,101.5C 274.807,100.496 268.641,99.3289 262.5,98C 260.164,95.4625 259.83,92.6292 261.5,89.5 Z"/></g>
<g><path style="opacity:0.957" fill="#ff8c84" d="M 221.5,91.5 C 221.59,94.1522 220.924,96.4855 219.5,98.5C 219.41,95.8478 220.076,93.5145 221.5,91.5 Z"/></g>
<g><path style="opacity:0.804" fill="#ffb4af" d="M 189.5,96.5 C 191.833,96.8333 193.167,98.1667 193.5,100.5C 191.833,99.5 190.5,98.1667 189.5,96.5 Z"/></g>
<g><path style="opacity:0.925" fill="#ff9088" d="M 237.5,97.5 C 238.043,97.56 238.376,97.8933 238.5,98.5C 235.914,99.48 233.247,99.8134 230.5,99.5C 232.833,98.8333 235.167,98.1667 237.5,97.5 Z"/></g>
<g><path style="opacity:0.945" fill="#ff9189" d="M 219.5,98.5 C 219.59,101.152 218.924,103.485 217.5,105.5C 217.41,102.848 218.076,100.515 219.5,98.5 Z"/></g>
<g><path style="opacity:1" fill="#ff5348" d="M 364.5,113.5 C 364.427,115.027 365.094,116.027 366.5,116.5C 369.499,120.322 369.165,123.822 365.5,127C 364.251,127.74 363.251,127.573 362.5,126.5C 362.167,125.5 361.5,124.833 360.5,124.5C 359.49,121.67 357.823,119.17 355.5,117C 351.333,115.833 349.833,117.333 351,121.5C 353.862,126.389 356.029,131.556 357.5,137C 356.209,143.957 352.043,147.791 345,148.5C 333.636,147.141 327.969,140.808 328,129.5C 329.101,125.864 331.268,124.864 334.5,126.5C 334.427,128.027 335.094,129.027 336.5,129.5C 336.832,134.51 339.332,137.844 344,139.5C 347.205,138.202 348.205,135.868 347,132.5C 341.887,126.517 340.553,119.85 343,112.5C 350.412,104.937 357.578,105.27 364.5,113.5 Z"/></g>
<g><path style="opacity:0.533" fill="#ffa5a1" d="M 195.5,113.5 C 195.573,115.027 194.906,116.027 193.5,116.5C 193.427,114.973 194.094,113.973 195.5,113.5 Z"/></g>
<g><path style="opacity:0.22" fill="#ffcac8" d="M 216.5,114.5 C 218.435,115.15 220.435,115.483 222.5,115.5C 221.903,116.139 221.07,116.472 220,116.5C 218.301,116.613 217.134,115.947 216.5,114.5 Z"/></g>
<g><path style="opacity:0.42" fill="#ffb2ae" d="M 364.5,113.5 C 365.906,113.973 366.573,114.973 366.5,116.5C 365.094,116.027 364.427,115.027 364.5,113.5 Z"/></g>
<g><path style="opacity:0.02" fill="#ffd3d1" d="M 308.5,113.5 C 310.176,114.183 310.843,115.517 310.5,117.5C 309.655,116.329 308.989,114.995 308.5,113.5 Z"/></g>
<g><path style="opacity:0.859" fill="#ffb0aa" d="M 176.5,118.5 C 177.71,118.932 178.71,119.599 179.5,120.5C 177.821,120.715 176.821,120.048 176.5,118.5 Z"/></g>
<g><path style="opacity:1" fill="#ff4f46" d="M 146.5,163.5 C 144.5,163.5 142.5,163.5 140.5,163.5C 138.167,161.833 136.167,159.833 134.5,157.5C 133.738,155.738 132.404,154.738 130.5,154.5C 124.484,149.484 119.151,143.817 114.5,137.5C 119.049,130.783 124.716,125.283 131.5,121C 143.88,117.276 153.047,121.109 159,132.5C 162.083,145.678 157.916,156.011 146.5,163.5 Z M 144.5,129.5 C 144.973,130.906 145.973,131.573 147.5,131.5C 154.116,140.903 152.449,148.07 142.5,153C 136.985,147.652 131.652,142.152 126.5,136.5C 130.811,129.673 136.811,127.34 144.5,129.5 Z"/></g>
<g><path style="opacity:0.004" fill="#ffc9c7" d="M 360.5,124.5 C 361.5,124.833 362.167,125.5 362.5,126.5C 361.167,126.5 360.5,125.833 360.5,124.5 Z"/></g>
<g><path style="opacity:0.447" fill="#ffaca8" d="M 334.5,126.5 C 335.906,126.973 336.573,127.973 336.5,129.5C 335.094,129.027 334.427,128.027 334.5,126.5 Z"/></g>
<g><path style="opacity:0.494" fill="#ffb0ad" d="M 144.5,129.5 C 146.027,129.427 147.027,130.094 147.5,131.5C 145.973,131.573 144.973,130.906 144.5,129.5 Z"/></g>
<g><path style="opacity:1" fill="#ffc061" d="M 359.5,277.5 C 358.732,278.263 358.232,279.263 358,280.5C 357.329,281.252 356.496,281.586 355.5,281.5C 350.489,276.651 345.989,271.317 342,265.5C 345.27,216.862 324.77,183.029 280.5,164C 237.178,152.111 202.011,163.945 175,199.5C 160.842,221.115 156.676,244.448 162.5,269.5C 168.506,260.158 174.006,250.492 179,240.5C 181.614,236.91 184.448,233.576 187.5,230.5C 190.5,228.167 193.167,225.5 195.5,222.5C 206.77,211.598 219.77,208.765 234.5,214C 240.398,218.064 245.065,223.231 248.5,229.5C 248.833,230.833 249.167,232.167 249.5,233.5C 243.429,231.636 237.429,229.469 231.5,227C 219.725,225.309 211.892,230.143 208,241.5C 205.061,254.138 207.728,265.472 216,275.5C 222.283,282.789 229.449,288.956 237.5,294C 241.747,297.742 245.414,301.908 248.5,306.5C 249.464,309.526 250.797,312.192 252.5,314.5C 250.372,315.629 248.039,315.796 245.5,315C 239.003,311.586 232.67,307.919 226.5,304C 217.803,302.046 209.47,299.212 201.5,295.5C 186.696,300.076 174.363,308.41 164.5,320.5C 160.965,317.764 158.132,314.431 156,310.5C 141.852,286.763 136.518,261.096 140,233.5C 143.334,211.503 152.501,192.503 167.5,176.5C 171.167,173.5 174.5,170.167 177.5,166.5C 194.711,150.903 215.044,141.736 238.5,139C 285.151,135.91 321.318,153.743 347,192.5C 362.132,219.255 366.298,247.588 359.5,277.5 Z"/></g>
<g><path style="opacity:0.694" fill="#ffb5b2" d="M 130.5,154.5 C 132.404,154.738 133.738,155.738 134.5,157.5C 132.596,157.262 131.262,156.262 130.5,154.5 Z"/></g>
<g><path style="opacity:0.959" fill="#ff9388" d="M 140.5,163.5 C 142.5,163.5 144.5,163.5 146.5,163.5C 144.5,166.167 142.5,166.167 140.5,163.5 Z"/></g>
<g><path style="opacity:0.706" fill="#ffe1b4" d="M 177.5,166.5 C 174.5,170.167 171.167,173.5 167.5,176.5C 169.833,172.167 173.167,168.833 177.5,166.5 Z"/></g>
<g><path style="opacity:1" fill="#21c169" d="M 252.5,314.5 C 250.797,312.192 249.464,309.526 248.5,306.5C 256.974,298.541 265.974,291.041 275.5,284C 288.353,273.465 293.853,259.965 292,243.5C 288.581,230.722 280.414,225.222 267.5,227C 261.802,229.187 256.135,231.353 250.5,233.5C 250.5,232.5 250.5,231.5 250.5,230.5C 260.618,210.784 275.618,205.951 295.5,216C 302.208,219.702 308.041,224.535 313,230.5C 322.1,243.699 330.433,257.366 338,271.5C 343.723,278.382 349.223,285.382 354.5,292.5C 339.932,326.897 314.599,349.064 278.5,359C 236.543,367.898 200.376,357.398 170,327.5C 169.333,326.5 169.333,325.5 170,324.5C 174.054,319.943 178.554,315.943 183.5,312.5C 218.425,344.989 257.091,350.155 299.5,328C 308.051,322.716 315.384,316.049 321.5,308C 314.77,301.468 306.77,297.301 297.5,295.5C 292.956,296.77 288.623,298.603 284.5,301C 281.529,301.794 278.529,302.461 275.5,303C 268.048,307.393 260.381,311.226 252.5,314.5 Z"/></g>
<g><path style="opacity:0.686" fill="#ffe2b7" d="M 195.5,222.5 C 193.167,225.5 190.5,228.167 187.5,230.5C 189.167,226.833 191.833,224.167 195.5,222.5 Z"/></g>
<g><path style="opacity:0.459" fill="#cbefd7" d="M 248.5,229.5 C 249.167,229.833 249.833,230.167 250.5,230.5C 250.5,231.5 250.5,232.5 250.5,233.5C 250.167,233.5 249.833,233.5 249.5,233.5C 249.167,232.167 248.833,230.833 248.5,229.5 Z"/></g>
<g><path style="opacity:1" fill="#ff3d38" d="M 248.5,243.5 C 249.053,245.552 250.053,245.885 251.5,244.5C 253.12,242.016 255.453,240.516 258.5,240C 271.008,238.181 278.008,243.514 279.5,256C 279.557,260.721 278.057,264.888 275,268.5C 266.682,275.983 258.516,283.65 250.5,291.5C 240.546,283.048 231.046,274.048 222,264.5C 217.853,254.606 220.353,246.772 229.5,241C 236.368,238.418 242.701,239.251 248.5,243.5 Z"/></g>
<g><path style="opacity:0.373" fill="#ffb8b4" d="M 248.5,243.5 C 249.391,244.11 250.391,244.443 251.5,244.5C 250.053,245.885 249.053,245.552 248.5,243.5 Z"/></g>
<g><path style="opacity:0.981" fill="#ff7367" d="M 407.5,244.5 C 408.873,244.343 410.207,244.51 411.5,245C 409.139,280.043 396.805,311.043 374.5,338C 372.833,338.667 371.167,338.667 369.5,338C 393.33,311.489 405.997,280.322 407.5,244.5 Z"/></g>
<g><path style="opacity:0.325" fill="#ffcccc" d="M 402.5,245.5 C 403.209,244.596 404.209,244.263 405.5,244.5C 405.806,247.385 405.473,250.052 404.5,252.5C 405.01,249.612 404.344,247.279 402.5,245.5 Z"/></g>
<g><path style="opacity:0.439" fill="#ffe7c3" d="M 359.5,277.5 C 359.753,279.827 359.086,281.827 357.5,283.5C 356.478,283.145 355.811,282.478 355.5,281.5C 356.496,281.586 357.329,281.252 358,280.5C 358.232,279.263 358.732,278.263 359.5,277.5 Z"/></g>
<g><path style="opacity:1" fill="#ff7469" d="M 94.5,240.5 C 95.5,240.5 96.5,240.5 97.5,240.5C 99.1614,275.676 111.995,306.009 136,331.5C 136.432,332.6 135.932,333.267 134.5,333.5C 133.833,333.333 133.167,333.167 132.5,333C 108.814,306.794 96.1474,275.961 94.5,240.5 Z"/></g>
<g><path style="opacity:0.994" fill="#ff7266" d="M 402.5,245.5 C 404.344,247.279 405.01,249.612 404.5,252.5C 401.392,285.353 388.725,313.853 366.5,338C 365.167,338.667 363.833,338.667 362.5,338C 386.776,312.04 400.109,281.206 402.5,245.5 Z"/></g>
<g><path style="opacity:0.996" fill="#ff776c" d="M 87.5,239.5 C 88.8333,239.5 90.1667,239.5 91.5,239.5C 92.8643,274.546 105.031,305.213 128,331.5C 126.883,334.047 125.216,334.047 123,331.5C 101.444,304.7 89.6107,274.033 87.5,239.5 Z"/></g>
<g><path style="opacity:1" fill="#5bcf88" d="M 144.5,334.5 C 147.792,334.12 150.125,335.453 151.5,338.5C 150.38,340.596 148.88,340.93 147,339.5C 146.51,340.793 146.343,342.127 146.5,343.5C 144.856,343.714 143.356,343.38 142,342.5C 140.261,344.741 138.094,346.408 135.5,347.5C 134.28,347.113 133.613,346.28 133.5,345C 135.112,342.384 137.112,340.05 139.5,338C 138.167,337.333 138.167,336.667 139.5,336C 141.382,335.802 143.048,335.302 144.5,334.5 Z"/></g>
<g><path style="opacity:1" fill="#5dcf88" d="M 349.5,346.5 C 355.341,346.332 359.341,348.998 361.5,354.5C 361.113,355.72 360.28,356.387 359,356.5C 356.702,355.039 354.535,353.372 352.5,351.5C 352.167,351.833 351.833,352.167 351.5,352.5C 352.48,353.981 353.647,355.315 355,356.5C 355.667,357.833 355.667,359.167 355,360.5C 354.282,361.451 353.449,361.617 352.5,361C 350.983,359.315 349.316,357.815 347.5,356.5C 347.167,356.833 346.833,357.167 346.5,357.5C 348.261,359.253 349.594,361.253 350.5,363.5C 350.547,365 349.881,366 348.5,366.5C 344.979,363.813 341.979,360.647 339.5,357C 341.5,355.667 343.167,354 344.5,352C 345.448,351.517 346.448,351.351 347.5,351.5C 347.392,349.486 348.058,347.82 349.5,346.5 Z"/></g>
<g><path style="opacity:1" fill="#5fcf89" d="M 149.5,348.5 C 156.007,348.296 159.507,351.296 160,357.5C 157.618,360.219 154.951,362.553 152,364.5C 148.234,362.566 145.734,359.566 144.5,355.5C 145.06,352.288 146.727,349.955 149.5,348.5 Z M 149.5,353.5 C 150.873,353.343 152.207,353.51 153.5,354C 154.474,356.702 153.474,358.035 150.5,358C 149.62,356.644 149.286,355.144 149.5,353.5 Z"/></g>
<g><path style="opacity:1" fill="#5acf88" d="M 165.5,360.5 C 170.095,361.13 173.762,363.296 176.5,367C 176.355,367.772 176.022,368.439 175.5,369C 172.899,369.92 170.232,370.587 167.5,371C 169.327,371.899 170.66,373.233 171.5,375C 171.333,376.5 170.5,377.333 169,377.5C 165.645,375.747 162.812,373.414 160.5,370.5C 160.608,369.558 160.941,368.725 161.5,368C 163.878,367.489 166.212,366.822 168.5,366C 166.323,364.814 165.323,362.981 165.5,360.5 Z"/></g>
<g><path style="opacity:1" fill="#55cd85" d="M 337.5,368.5 C 336.5,368.833 335.833,369.5 335.5,370.5C 334.167,370.833 334.167,371.167 335.5,371.5C 336.391,370.89 337.391,370.557 338.5,370.5C 339.026,373.808 337.693,375.974 334.5,377C 328.685,378.261 325.685,375.928 325.5,370C 326.226,364.793 329.226,362.793 334.5,364C 336.376,364.918 337.376,366.418 337.5,368.5 Z M 330.5,367.5 C 332.975,367.747 332.975,368.413 330.5,369.5C 329.537,369.03 329.537,368.363 330.5,367.5 Z"/></g>
<g><path style="opacity:0.135" fill="#dff6eb" d="M 337.5,368.5 C 337.833,369.167 338.167,369.833 338.5,370.5C 337.391,370.557 336.391,370.89 335.5,371.5C 335.5,371.167 335.5,370.833 335.5,370.5C 335.833,369.5 336.5,368.833 337.5,368.5 Z"/></g>
<g><path style="opacity:1" fill="#5dcf8a" d="M 182.5,372.5 C 189.827,371.329 192.994,374.329 192,381.5C 190.933,382.191 189.766,382.691 188.5,383C 189.399,384.99 188.565,386.157 186,386.5C 181.488,385.988 178.988,383.488 178.5,379C 179.234,376.439 180.567,374.273 182.5,372.5 Z"/></g>
<g><path style="opacity:1" fill="#58ce86" d="M 305.5,371.5 C 307.173,372.343 308.34,373.676 309,375.5C 312.726,372.799 316.226,373.133 319.5,376.5C 321.283,380.539 320.616,384.039 317.5,387C 315.22,387.233 313.22,388.066 311.5,389.5C 308.069,384.974 305.402,379.974 303.5,374.5C 303.942,373.261 304.609,372.261 305.5,371.5 Z M 312.5,378.5 C 316.161,378.35 317.161,379.85 315.5,383C 311.707,383.487 310.707,381.987 312.5,378.5 Z"/></g>
<g><path style="opacity:1" fill="#5ccf89" d="M 200.5,379.5 C 211.547,379.799 214.547,384.965 209.5,395C 208.216,395.684 207.049,395.517 206,394.5C 205.846,391.937 206.346,389.437 207.5,387C 207.387,385.72 206.72,384.887 205.5,384.5C 203.563,386.792 201.896,389.292 200.5,392C 199.551,392.617 198.718,392.451 198,391.5C 198.086,387.391 198.92,383.391 200.5,379.5 Z"/></g>
<g><path style="opacity:1" fill="#5bce87" d="M 231.5,381.5 C 233.722,381.559 234.722,382.725 234.5,385C 233.538,389.476 232.705,393.976 232,398.5C 230.667,401.167 229.333,401.167 228,398.5C 220.255,399.412 217.588,396.079 220,388.5C 222.571,385.653 225.571,384.987 229,386.5C 229.366,384.548 230.199,382.882 231.5,381.5 Z M 225.5,389.5 C 229.184,391.203 229.351,393.203 226,395.5C 222.898,393.663 222.731,391.663 225.5,389.5 Z"/></g>
<g><path style="opacity:1" fill="#5ace87" d="M 279.5,384.5 C 285.656,384.487 288.49,387.487 288,393.5C 286.287,398.038 283.12,399.538 278.5,398C 272.954,393.097 273.288,388.597 279.5,384.5 Z M 279.5,389.5 C 283.161,389.35 284.161,390.85 282.5,394C 279.273,393.944 278.273,392.444 279.5,389.5 Z"/></g>
<g><path style="opacity:1" fill="#5ccf88" d="M 246.5,387.5 C 254.77,389.542 256.437,394.042 251.5,401C 242.256,402.762 239.09,399.262 242,390.5C 243.409,389.219 244.909,388.219 246.5,387.5 Z M 245.5,392.5 C 250.584,392.966 251.25,394.632 247.5,397.5C 245.783,396.332 245.116,394.665 245.5,392.5 Z"/></g>
</svg>
